<?xml version="1.0" encoding="UTF-8"?>
<svg id="Layer_1" xmlns="http://www.w3.org/2000/svg" version="1.1" viewBox="0 0 200 200">
  <!-- Generator: Adobe Illustrator 30.2.1, SVG Export Plug-In . SVG Version: 2.1.1 Build 1)  -->
  <defs>
    <style>
      .st0 {
        fill: #00388f;
      }

      .st1 {
        fill: #009fdb;
      }
    </style>
  </defs>
  <path class="st0" d="M47.6,136.1c-2.04,0-3.71-1.67-3.71-3.71v-55.73h99.58v25.9c2.25.51,4.4,1.29,6.43,2.23v-46.02c0-5.6-4.55-10.14-10.12-10.14h-13.08v-7.44c0-1.74-1.42-3.15-3.17-3.15h-10.06c-1.74,0-3.15,1.41-3.15,3.15v7.44h-33.28v-7.44c0-1.74-1.39-3.15-3.15-3.15h-10.06c-1.74,0-3.15,1.41-3.15,3.15v7.44h-13.08c-5.6,0-10.14,4.55-10.14,10.14v73.61c0,5.6,4.55,10.14,10.14,10.14h55.99c-.49-2.08-.82-4.22-.88-6.43h-55.11Z"/>
  <path class="st0" d="M58.86,83.91h11.84c2.35,0,4.25,1.91,4.25,4.25v9.77c0,2.35-1.9,4.25-4.25,4.25h-11.84c-2.35,0-4.25-1.91-4.25-4.25v-9.77c0-2.35,1.9-4.25,4.25-4.25Z"/>
  <path class="st0" d="M58.87,110.57h11.84c2.35,0,4.25,1.91,4.25,4.25v9.77c0,2.35-1.91,4.25-4.25,4.25h-11.84c-2.35,0-4.25-1.91-4.25-4.25v-9.77c0-2.35,1.91-4.25,4.25-4.25Z"/>
  <path class="st0" d="M87.77,83.91h11.84c2.35,0,4.25,1.91,4.25,4.25v9.77c0,2.35-1.9,4.25-4.25,4.25h-11.84c-2.35,0-4.25-1.9-4.25-4.25v-9.78c0-2.35,1.9-4.25,4.25-4.25Z"/>
  <path class="st0" d="M87.77,110.57h11.84c2.35,0,4.25,1.91,4.25,4.25v9.77c0,2.35-1.91,4.25-4.25,4.25h-11.83c-2.35,0-4.25-1.91-4.25-4.25v-9.78c0-2.35,1.9-4.25,4.25-4.25Z"/>
  <path class="st0" d="M116.67,83.91h11.84c2.35,0,4.25,1.9,4.25,4.25v9.77c0,2.35-1.91,4.25-4.25,4.25h-11.84c-2.35,0-4.25-1.9-4.25-4.25v-9.77c0-2.35,1.91-4.25,4.25-4.25Z"/>
  <path class="st1" d="M135.78,108.06c-14.76,0-26.68,11.97-26.68,26.68s11.97,26.68,26.68,26.68,26.68-11.97,26.68-26.68c.05-14.76-11.92-26.67-26.68-26.67ZM146.74,138.58h-10.91c-2.11,0-3.84-1.73-3.84-3.84v-12.98c0-2.11,1.73-3.84,3.84-3.84s3.85,1.73,3.85,3.84v9.13h7.11c2.11,0,3.84,1.73,3.84,3.85s-1.78,3.84-3.89,3.84Z"/>
</svg>